# xmcd CD database file
#
# Track frame offsets:
#	150
#	18885
#	35748
#	49785
#	63255
#	76478
#	94316
#	111779
#	129072
#	146075
#	163601
#
# Disc length: 2509 seconds
#
# Revision: 0
# Processed by: cddbd v1.5.1PL0 Copyright (c) Steve Scherf et al.
# Submitted via: CDex 1.51
#
DISCID=8c09cb0b
DTITLE=Pi - Beat Mining In Dark Places
DYEAR=2004
DGENRE=Rhythmic Soul
TTITLE0=Your Type
TTITLE1=My Right Arm
TTITLE2=Freaks
TTITLE3=Sneak Attack
TTITLE4=Barefoot
TTITLE5=Something To Lose
TTITLE6=San Francisco
TTITLE7=Gods I Need
TTITLE8=Understudy Guy
TTITLE9=Pi 4 Prez
TTITLE10=Plastic Spoon
EXTD=YEAR: 2004
EXTT0=
EXTT1=
EXTT2=
EXTT3=
EXTT4=
EXTT5=
EXTT6=
EXTT7=
EXTT8=
EXTT9=
EXTT10=
PLAYORDER=
